<svg xmlns="http://www.w3.org/2000/svg" version="1.1" xmlns:xlink="http://www.w3.org/1999/xlink" xmlns:svgjs="http://svgjs.dev/svgjs" width="2000" height="2000" viewBox="0 0 2000 2000"><g transform="matrix(1,0,0,1,-0.28443113772425477,-0.28443113772459583)"><svg viewBox="0 0 334 334" data-background-color="#0718c4" preserveAspectRatio="xMidYMid meet" height="2000" width="2000" xmlns="http://www.w3.org/2000/svg" xmlns:xlink="http://www.w3.org/1999/xlink"><g id="tight-bounds" transform="matrix(1,0,0,1,0.04749999999998522,0.04750000000001364)"><svg viewBox="0 0 333.90454557049503 333.90454557049503" height="333.90454557049503" width="333.90454557049503"><g><svg></svg></g><g><svg viewBox="0 0 333.90454557049503 333.90454557049503" height="333.90454557049503" width="333.90454557049503"><g><path d="M0 166.952c0-92.205 74.747-166.952 166.952-166.952 92.205 0 166.952 74.747 166.953 166.952 0 92.205-74.747 166.952-166.953 166.953-92.205 0-166.952-74.747-166.952-166.953zM166.952 316.63c82.665 0 149.677-67.013 149.678-149.678 0-82.665-67.013-149.677-149.678-149.677-82.665 0-149.677 67.013-149.677 149.677 0 82.665 67.013 149.677 149.677 149.678z" data-fill-palette-color="tertiary" fill="#ffffff" stroke="transparent"></path><ellipse rx="160.27418187383762" ry="160.27418187383762" cx="166.95227278524752" cy="166.95227278524752" fill="#ffffff" stroke="transparent" stroke-width="0" fill-opacity="1" data-fill-palette-color="tertiary"></ellipse></g><g transform="matrix(1,0,0,1,105.03973791348679,71.17305217166896)"><svg viewBox="0 0 123.82506974352147 191.55844122715712" height="191.55844122715712" width="123.82506974352147"><g><svg viewBox="0 0 123.82506974352147 191.55844122715712" height="191.55844122715712" width="123.82506974352147"><g><svg viewBox="0 0 123.82506974352147 191.55844122715712" height="191.55844122715712" width="123.82506974352147"><g><svg viewBox="0 0 123.82506974352147 191.55844122715712" height="191.55844122715712" width="123.82506974352147"><g><svg viewBox="0 0 123.82506974352147 191.55844122715712" height="191.55844122715712" width="123.82506974352147"><g><svg viewBox="0 0 123.82506974352147 191.55844122715712" height="191.55844122715712" width="123.82506974352147"><g transform="matrix(1,0,0,1,0,0)"><svg width="123.82506974352147" viewBox="1.6500000953674316 -35.45000076293945 23.399999618530273 36.20000076293945" height="191.55844122715712" data-palette-color="#0718c4"><path d="M12.35-3.45L12.35-3.45Q19.95-3.45 19.95-8.65L19.95-8.65Q19.95-10.25 19.28-11.38 18.6-12.5 17.45-13.33 16.3-14.15 14.83-14.75 13.35-15.35 11.7-15.95L11.7-15.95Q9.8-16.6 8.1-17.43 6.4-18.25 5.15-19.38 3.9-20.5 3.18-22.05 2.45-23.6 2.45-25.8L2.45-25.8Q2.45-30.35 5.55-32.9 8.65-35.45 14.1-35.45L14.1-35.45Q17.25-35.45 19.83-34.77 22.4-34.1 23.6-33.3L23.6-33.3 22.05-29.35Q21-30 18.93-30.63 16.85-31.25 14.1-31.25L14.1-31.25Q12.7-31.25 11.5-30.95 10.3-30.65 9.4-30.05 8.5-29.45 7.98-28.53 7.45-27.6 7.45-26.35L7.45-26.35Q7.45-24.95 8-24 8.55-23.05 9.55-22.33 10.55-21.6 11.88-21 13.2-20.4 14.8-19.8L14.8-19.8Q17.05-18.9 18.93-18 20.8-17.1 22.18-15.85 23.55-14.6 24.3-12.88 25.05-11.15 25.05-8.7L25.05-8.7Q25.05-4.15 21.73-1.7 18.4 0.75 12.35 0.75L12.35 0.75Q10.3 0.75 8.58 0.48 6.85 0.2 5.5-0.18 4.15-0.55 3.18-0.98 2.2-1.4 1.65-1.7L1.65-1.7 3.1-5.7Q4.25-5.05 6.6-4.25 8.95-3.45 12.35-3.45Z" opacity="1" transform="matrix(1,0,0,1,0,0)" fill="#0718c4" class="undefined-text-0" data-fill-palette-color="quaternary" id="text-0"></path></svg></g></svg></g></svg></g></svg></g><g></g></svg></g></svg></g></svg></g></svg></g><defs></defs></svg><rect width="333.90454557049503" height="333.90454557049503" fill="none" stroke="none" visibility="hidden"></rect></g></svg></g></svg>